<?xml version="1.0" encoding="UTF-8"?>
<svg xmlns="http://www.w3.org/2000/svg" version="1.1" viewBox="0 0 1920 1084">
  <defs>
    <style>
      .cls-1 {
        fill: #f7ecb5;
      }

      .cls-2 {
        fill: #c69c6d;
      }

      .cls-3 {
        fill: #f2e197;
      }

      .cls-4 {
        isolation: isolate;
      }

      .cls-5 {
        fill: #fdf5c7;
      }

      .cls-6 {
        fill: #dba74b;
      }

      .cls-7 {
        fill: #f9d374;
      }

      .cls-8 {
        fill: none;
        stroke: #000;
        stroke-miterlimit: 10;
        stroke-width: 5px;
      }
    </style>
  </defs>
  <!-- Generator: Adobe Illustrator 28.7.4, SVG Export Plug-In . SVG Version: 1.2.0 Build 166)  -->
  <g>
    <g id="Layer_1">
      <rect class="cls-5" y="2" width="1918" height="1081.5"/>
      <circle class="cls-2" cx="517.5" cy="527.5" r="338.5"/>
      <circle class="cls-8" cx="535" cy="532" r="338.5"/>
      <g>
        <path class="cls-1" d="M624.7,412.2c-52.1,12.1-104.3,24.2-156.4,36.3,8.4,21.5,19.9,58.4,17.7,103.6-5.9,120-103.3,200-71.8,235.6,9.7,10.9,26.2,11.8,41.9,12.6,66.5,3.5,117.6-56.6,136.5-78.8,94.1-110.7,41.4-280.9,32.2-309.1Z"/>
        <path class="cls-7" d="M468.8,450.2c2.5,8.4,39.3,6.8,82.4-3.7s75.9-25.8,73.5-34.2-39.3-6.8-82.4,3.7-75.9,25.8-73.5,34.2Z"/>
        <g>
          <path class="cls-6" d="M544.6,429.5c-1.1.2-1.3,1-1.2,1.4.3,1,2.3,1.4,3.9,2.1,4.5,1.7,4.4,4.3,4.1,4.3-.3,0-1.1-1.7-5.3-3.4-3.6-1.4-7.1-1.7-9-1.8-1.7,0-4-.2-5.1.3-1.5.6.4,1.6,1.5,3.6,1.2,2.2.7,4,.2,4.1-.8,0,.4-5.9-9.4-8.1-3.3-.7-8-1.1-7.7-1.4.3-.4,6.3,0,7.6-.8.5-.3.1-.8,0-.9-.9-.9-4-1.1-3.9-1.2,0,0,3.5.4,7.7.5,2.7,0,5.3.2,6.3-.3.9-.4.2-1.1,0-1.4-1.2-1.1-4.1-1.5-3.9-1.6.4-.3,12.4,1.8,14.1,1.1,1.5-.7-6.3-3.5-5.3-3.8.5-.2,2.1.5,5.1.6,3.6.2,6.9-.5,8.8-.9,5.6-1.2,8.4-2.8,8.7-2.7.6.2-9.6,4-7.2,6.7,1.3,1.5,5.9,2,5.2,2.5-.5.3-3.9.3-6.4-.1-2.3-.4-2.9-.9-3.9-.7-1.2.2-1.8,1.1-1.2,1.9.7.8,2.7,1.2,2.6,1.2-.1,0-4.3-1.5-6.4-1Z"/>
          <path class="cls-7" d="M562,422.8c-.6,0-6.8.6-10,2.8-2.9,1.9-1.2,3.6-1,3.9-.6-.5-2.6-2-4-1.8-1.8.2-1.6,2.9-1.6,3.2-.3,0-4-1.1-5.9-.6-1.6.4-1.6,1.9.8,3.6-2.5-1.3-6.6-2-10.9-1.7-3.1.2-5.3.8-6.3,1.2.2-.1,2.1-1.1,1.1-2.3-.7-.8-2.8-1.4-5.3-1.5,1.8,0,4.6,0,7.7-.4,1.9-.2,4.8-.6,5-1.2.2-.4-1.5-.9-3.9-1.2,1.5.4,3.5.5,5.1.2,2.4-.4,3.8-1.7,2.4-2.8,2.2.6,4.3.7,5.1.6,4.5,0,9.4-1.9,11.2-4.4-.3.4-.6,1,0,1.6,1.3,1,5.5,1.4,10.3.8Z"/>
          <g>
            <ellipse cx="536" cy="433.6" rx="1.3" ry=".5" transform="translate(-20.5 26.7) rotate(-2.8)"/>
            <ellipse cx="531.7" cy="437.2" rx=".6" ry=".2" transform="translate(-20.7 26.5) rotate(-2.8)"/>
            <ellipse cx="553.6" cy="430.4" rx="1.3" ry=".5" transform="translate(-20.3 27.5) rotate(-2.8)"/>
            <ellipse cx="537" cy="429.4" rx="1.3" ry=".5" transform="translate(-20.3 26.7) rotate(-2.8)"/>
            <ellipse cx="526.6" cy="425.9" rx="1.3" ry=".5" transform="translate(-20.2 26.2) rotate(-2.8)"/>
            <ellipse cx="521.7" cy="428.9" rx="1.3" ry=".5" transform="translate(-20.3 26) rotate(-2.8)"/>
            <ellipse cx="548.1" cy="423.5" rx="1.3" ry=".5" transform="translate(-20 27.3) rotate(-2.8)"/>
            <ellipse cx="558.4" cy="426.1" rx="1.3" ry=".5" transform="translate(-20.1 27.8) rotate(-2.8)"/>
            <ellipse cx="546.6" cy="431" rx=".6" ry=".2" transform="translate(-20.4 27.2) rotate(-2.8)"/>
            <ellipse cx="522.6" cy="434" rx=".6" ry=".2" transform="translate(-20.6 26) rotate(-2.8)"/>
            <ellipse cx="541.2" cy="424.9" rx=".6" ry=".2" transform="translate(-20.1 26.9) rotate(-2.8)"/>
            <ellipse cx="534.9" cy="427.1" rx=".6" ry=".2" transform="translate(-20.2 26.6) rotate(-2.8)"/>
          </g>
        </g>
        <g>
          <path class="cls-3" d="M611.3,454.5c-8.9,3.5-18.5,7-28.7,10.1-27.8,8.6-53.5,13.1-75.8,15.4,20.6-2,42.6-5.3,65.6-10.6,3.2-.7,6.4-1.5,9.5-2.3s5.6-1.7,8.3-2.9c7-3.2,14.1-6.5,21.1-9.7Z"/>
          <path class="cls-3" d="M503.6,535.8c9.8.2,20.1-.1,30.9-1.1,29.2-2.7,54.4-9.7,75.3-17.8-19.2,7.7-40.4,14.3-63.6,19-3.2.6-6.5,1.2-9.7,1.8s-5.9.6-8.9.4c-8-.7-16-1.4-24-2.1Z"/>
          <path class="cls-3" d="M602.3,642c-9.7.8-19.9,1.3-30.7,1.4-29.3.2-55.3-2.8-77.3-7,20.3,4,42.3,7.1,65.9,8.6,3.3.2,6.6.4,9.8.6s5.9,0,8.9-.4c7.8-1.1,15.6-2.1,23.4-3.2Z"/>
          <path class="cls-3" d="M472.3,688.4c9.3,3,19.2,5.6,29.8,7.7,28.7,5.8,55,6.3,77.6,4.5-20.9,1.9-43.3,2.1-66.9-.1-3.3-.3-6.6-.7-9.8-1.1s-5.8-1.1-8.6-2.2c-7.4-3-14.7-5.9-22.1-8.9Z"/>
          <path class="cls-3" d="M625,578.2c-13.1,5-34.5,12-61.9,16.3-26.4,4.2-47.9,4.3-61.5,3.7,13.8.8,27.7,1.6,41.5,2.4,14.9.9,31.1-1.8,45.1-7.5l36.8-14.9Z"/>
          <path class="cls-3" d="M545.5,748.4c-11.8-1-30.8-3.1-53.7-8.4-22-5.1-38.7-11-49.2-15.1,10.5,4.3,21.1,8.6,31.6,12.9,11.3,4.6,24.9,7.7,37.6,8.5l33.6,2.2Z"/>
        </g>
      </g>
      <g>
        <path class="cls-3" d="M267.1,454.6c-.2-6.6-.8-22.6,9-36,5.3-7.4,8.7-6.9,14-15,8-12.2,4.8-20,9-27,10.4-17.5,61.9-21.7,89.9,6,20.9,20.8,19.4,50.1,19,57-.4,7.9-1.8,33.8-22,51-15.9,13.6-34.3,13.8-56,14-20.5.2-37.6.4-50-12-12.1-12.2-12.7-29.5-13-38Z"/>
        <path class="cls-5" d="M267.1,448.8c-.2-6.1-.7-21.1,8.4-33.7,5-6.9,8.1-6.5,13.1-14,7.5-11.4,4.5-18.7,8.4-25.3,9.7-16.4,58-20.4,84.2,5.6,19.6,19.4,18.1,46.9,17.8,53.3-.4,7.4-1.7,31.6-20.6,47.7-14.9,12.7-32.1,12.9-52.4,13.1-19.2.2-35.2.4-46.8-11.2-11.3-11.4-11.9-27.6-12.2-35.6Z"/>
        <path class="cls-6" d="M334.1,436.7c.9-.4,1.1-2,1-3-.2-2.2-1.7-3.4-3-5-3.5-4.3-3.3-9.9-3-10,.2,0,.8,3.9,4,8,2.7,3.5,5.5,4.6,7,5,1.3.4,3.1.9,4,0,1.2-1.1-.2-3.6-1-8-.9-4.9-.4-9,0-9,.6,0-.6,13,7,19,2.5,2,6.2,3.3,6,4-.3.8-4.9-.8-6,1-.4.7-.1,1.6,0,2,.7,2.1,3.1,2.9,3,3,0,.2-2.7-1.2-6-2-2.1-.5-4.2-1-5,0-.7.9-.2,2.4,0,3,.9,2.6,3.1,3.8,3,4-.3.5-9.7-5.5-11-4-1.2,1.3,4.8,8.3,4,9-.4.3-1.6-1.3-4-2-2.8-.8-5.5.3-7,1-4.4,1.9-6.7,5.2-7,5-.5-.4,7.7-7.8,6-14-1-3.4-4.6-5.1-4-6,.4-.7,3.1-.2,5,1,1.8,1.1,2.2,2.2,3,2,.9-.3,1.4-2.3,1-4-.5-1.8-2.1-2.9-2-3,.1-.1,3.3,3.7,5,3Z"/>
        <path class="cls-7" d="M320.1,449.7c.5,0,5.4-.6,8-5,2.3-3.9,1.2-7.9,1-8.5.4,1.1,1.9,4.7,3,4.5,1.4-.2,1.4-6.3,1.4-7,.3.2,3.1,2.8,4.6,2,1.3-.7,1.3-4-.5-8,1.9,3.2,5.1,5.1,8.5,5,2.4,0,4.2-1.3,5-1.9-.2.2-1.7,2.3-1,4.9.5,2,2.1,3.5,4.1,4-1.4-.3-3.6-.5-6.1,0-1.5.3-3.8.8-4,2-.2,1,1.1,2.2,3,3-1.2-1-2.7-1.5-4-1-1.9.7-3.1,3.4-2,6-1.7-1.7-3.3-1.9-4-2-3.6-.3-7.5,3.1-9,8.5.3-.8.6-2.2,0-3.5-1-2.4-4.3-3.8-8-3Z"/>
        <g>
          <circle cx="341.1" cy="428.7" r="1"/>
          <circle cx="344.6" cy="421.2" r=".5"/>
          <circle cx="327.1" cy="433.7" r="1"/>
          <circle cx="340.1" cy="437.7" r="1"/>
          <circle cx="348.1" cy="446.7" r="1"/>
          <circle cx="352.1" cy="440.7" r="1"/>
          <circle cx="331.1" cy="449.7" r="1"/>
          <circle cx="323.1" cy="442.7" r="1"/>
          <circle cx="332.6" cy="433.2" r=".5"/>
          <circle cx="351.6" cy="429.2" r=".5"/>
          <circle cx="336.6" cy="447.2" r=".5"/>
          <circle cx="341.6" cy="443.2" r=".5"/>
        </g>
      </g>
      <g>
        <g class="cls-4">
          <g>
            <path class="cls-3" d="M681.4,555.2l2.8-14.4c1.8-8.9-4.9-13.5-4.2-18.6,0,0,0-.2,0-.3l-2.8,14.4c0,0,0,.2,0,.3-.7,5.1,6,9.7,4.2,18.6Z"/>
            <path class="cls-3" d="M826.6,572.9c-.1.6-.3,1.2-.4,1.8,0,.2,0,.3-.2.5,0,.2,0,.3-.2.5,0,.2-.2.5-.3.7,0,.2-.1.3-.2.5-.1.3-.2.5-.3.8,0,.1-.1.3-.2.4-.2.4-.4.7-.5,1.1,0,0,0,0,0,.1s0,0,0,0c-.3.5-.6,1.1-1,1.6,0,.1-.2.3-.3.4-.4.5-.8,1.1-1.2,1.6-.4.5-.9,1-1.3,1.4-.2.2-.4.5-.6.7-.6.6-1.2,1.1-1.8,1.6,0,0-.1.1-.2.2,0,0,0,0,0,0-.7.6-1.5,1.2-2.3,1.7-.3.2-.6.4-.9.5-.6.4-1.2.7-1.8,1.1-.6.3-1.2.7-1.8,1-.1,0-.3.1-.4.2-.8.4-1.6.8-2.5,1.1-.2,0-.5.2-.7.3-.6.3-1.3.5-2,.8-.3.1-.6.2-.9.3-.7.3-1.4.5-2.2.7-.2,0-.4.1-.6.2-.9.3-1.9.6-2.9.8-.2,0-.5.1-.7.2-.8.2-1.5.4-2.3.6-.3,0-.7.2-1,.2-.5.1-1,.2-1.6.4-1.2.3-2.3.5-3.6.8-.3,0-.7.1-1,.2-1.5.3-3,.6-4.6.9-.4,0-.8.1-1.2.2-1.3.2-2.6.5-3.9.7-.5,0-1,.2-1.4.2-1.6.3-3.1.5-4.7.8-2.6.4-5.2.9-7.8,1.3-1.7.3-3.4.5-5.1.8-.3,0-.6,0-.8.1-.5,0-1,.1-1.5.2-.5,0-1.1.1-1.6.2-.5,0-1,.1-1.5.2-.5,0-1,.1-1.6.2-.5,0-1,0-1.5.1-.5,0-1,.1-1.5.1-.5,0-1,0-1.5.1-.5,0-1,0-1.5.1-.5,0-1,0-1.4,0-.5,0-1,0-1.5,0-.5,0-1,0-1.4,0-.5,0-1,0-1.5,0-.5,0-1,0-1.4,0-.5,0-1,0-1.5,0-.5,0-1,0-1.4,0-.5,0-1,0-1.4,0-.9,0-1.7-.1-2.6-.2-.2,0-.5,0-.7,0-1.1-.1-2.1-.2-3.2-.4-.8-.1-1.7-.3-2.5-.4,0,0-.2,0-.3,0-.9-.2-1.9-.4-2.8-.6-.2,0-.4-.1-.7-.2-.7-.2-1.4-.3-2.1-.5-.3,0-.6-.2-1-.3-.8-.2-1.6-.5-2.4-.7-1.2-.4-2.3-.8-3.4-1.2-1-.4-1.9-.8-2.8-1.2-.2-.1-.5-.2-.7-.3-.7-.3-1.3-.6-1.9-.9-.9-.5-1.7-.9-2.6-1.4-.1,0-.3-.1-.4-.2-.9-.5-1.9-1.1-2.7-1.7-.7-.4-1.3-.9-2-1.3-.1-.1-.3-.2-.4-.3-.5-.4-1.1-.8-1.6-1.2-.1-.1-.3-.2-.4-.3-.6-.5-1.2-.9-1.7-1.4-.1,0-.2-.2-.3-.3-.5-.4-.9-.8-1.3-1.2-.1-.1-.2-.2-.4-.3-.5-.5-1-.9-1.5-1.4,0,0-.2-.2-.2-.2-.4-.4-.8-.8-1.1-1.2-.1-.1-.2-.2-.3-.3-.4-.4-.8-.9-1.2-1.3,0,0-.1-.1-.2-.2-.3-.4-.7-.7-1-1.1,0-.1-.2-.2-.3-.3-.3-.4-.7-.8-1-1.1,0,0,0,0,0-.1-.3-.4-.6-.7-.8-1,0,0-.2-.2-.2-.3-.3-.3-.5-.6-.7-.9-3.2-4-10.8-13.5-8.9-23.3l-2.8,14.4c-1.9,9.7,5.7,19.2,8.9,23.3.2.3.5.6.7.9,0,0,.2.2.2.3.3.3.5.7.8,1,0,0,0,0,0,.1.3.4.6.8,1,1.1,0,.1.2.2.3.3.3.4.6.7,1,1.1,0,0,.1.1.2.2.4.4.8.9,1.2,1.3.1.1.2.2.3.3.4.4.8.8,1.1,1.2,0,0,.2.2.2.2.5.5,1,.9,1.5,1.4.1.1.2.2.4.3.4.4.9.8,1.3,1.2.1,0,.2.2.3.3.6.5,1.1.9,1.7,1.4.1.1.3.2.4.3.5.4,1,.8,1.6,1.2.1.1.3.2.4.3.6.4,1.2.8,1.8,1.2,0,0,.1,0,.2,0,.9.6,1.8,1.1,2.7,1.7.1,0,.3.1.4.2.8.5,1.7.9,2.6,1.4,0,0,.2,0,.3.1.5.3,1.1.5,1.7.8.2.1.5.2.7.3.9.4,1.8.8,2.7,1.2,0,0,0,0,.1,0,1.1.4,2.2.8,3.4,1.2.5.2.9.3,1.4.4.3.1.7.2,1,.3.3,0,.6.2.9.3.7.2,1.4.4,2.1.5.2,0,.4.1.6.2,0,0,.1,0,.2,0,.9.2,1.8.4,2.6.6,0,0,.2,0,.3,0,.8.1,1.5.3,2.3.4,0,0,.1,0,.2,0,1.1.2,2.2.3,3.2.4.2,0,.5,0,.7,0,.9,0,1.7.2,2.6.2.1,0,.2,0,.3,0,.4,0,.7,0,1.1,0,.5,0,1,0,1.4,0,.5,0,1,0,1.5,0,.5,0,1,0,1.4,0,.5,0,1,0,1.5,0,.5,0,1,0,1.4,0,.5,0,1,0,1.5,0,.5,0,1,0,1.5,0,.5,0,1,0,1.5-.1.5,0,1,0,1.5-.1.5,0,1,0,1.5-.1.5,0,1,0,1.5-.1.5,0,1-.1,1.6-.2.5,0,1-.1,1.5-.2.5,0,1.1-.1,1.6-.2.5,0,1-.1,1.5-.2.1,0,.2,0,.3,0,.2,0,.3,0,.5,0,1.7-.2,3.4-.5,5.1-.8,2.5-.4,5.1-.8,7.8-1.3,1.6-.3,3.2-.5,4.7-.8.5,0,1-.2,1.4-.2,1.3-.2,2.6-.5,3.9-.7.4,0,.8-.1,1.2-.2,1.6-.3,3.1-.6,4.6-.9.3,0,.7-.1,1-.2,1.2-.2,2.4-.5,3.6-.8.3,0,.5-.1.8-.2.3,0,.5-.1.8-.2.3,0,.7-.2,1-.2.8-.2,1.6-.4,2.3-.6.2,0,.5-.1.7-.2,1-.3,1.9-.6,2.9-.8.2,0,.4-.1.6-.2.7-.2,1.5-.5,2.2-.7.3-.1.6-.2.9-.3.7-.2,1.3-.5,2-.8.2,0,.5-.2.7-.3.9-.4,1.7-.7,2.5-1.1.1,0,.3-.1.4-.2.5-.3,1-.5,1.5-.8.1,0,.2-.1.3-.2.6-.3,1.2-.7,1.8-1.1.3-.2.6-.4.9-.6.8-.6,1.6-1.1,2.3-1.7,0,0,0,0,0,0,0,0,0,0,0,0,0,0,.1-.1.2-.2.6-.5,1.2-1.1,1.8-1.6.2-.2.4-.4.6-.7.4-.4.7-.8,1.1-1.2,0,0,.1-.2.2-.3.4-.5.8-1.1,1.2-1.6,0-.1.2-.3.3-.4.4-.5.7-1.1,1-1.6,0,0,0,0,0,0,0,0,0,0,0,0,0,0,0,0,0,0,.2-.4.4-.7.6-1.1,0-.1.1-.3.2-.4.1-.3.2-.5.3-.8,0-.2.1-.3.2-.5,0-.2.2-.5.3-.7,0-.2.1-.3.2-.5,0,0,0-.2,0-.3,0,0,0-.1,0-.2.2-.6.3-1.2.4-1.8l2.8-14.4Z"/>
          </g>
          <path class="cls-5" d="M710.4,507.2c17.9-2.8,41-2.2,62,4.8,30.9,10.2,43.5,29.7,46.5,34.2,3.4,5.2,14.6,22.4,2.8,36.7-9.3,11.4-27.5,14.4-48.9,18-2.6.4-5.2.9-7.8,1.3-16.9,2.7-31.9,4.1-47.8-1.2-17.9-6-26.9-17.3-31.3-22.7-3.4-4.2-11.7-14.6-8.5-24.9,1.8-5.6,5.3-5.9,6.7-12,2.1-9.2-4.9-13.8-4.1-19,.9-6.4,13.2-12.3,30.4-15Z"/>
        </g>
        <g>
          <path class="cls-6" d="M741.9,555.5c.8-.3,1-1.6.9-2.3-.2-1.7-1.6-2.7-2.8-3.9-3.2-3.4-3-7.7-2.8-7.8.2,0,.7,3.1,3.7,6.2,2.5,2.7,5.1,3.6,6.5,3.9,1.2.3,2.9.7,3.7,0,1.1-.9-.2-2.8-.9-6.2-.8-3.8-.3-7,0-7,.6,0-.6,10.2,6.5,14.8,2.4,1.5,5.8,2.6,5.6,3.1-.2.6-4.6-.6-5.6.8-.4.5-.1,1.3,0,1.6.6,1.6,2.9,2.2,2.8,2.3,0,.1-2.5-.9-5.6-1.6-2-.4-3.9-.8-4.7,0-.7.7-.2,1.9,0,2.3.8,2,2.9,2.9,2.8,3.1-.3.4-9-4.3-10.2-3.1-1.1,1,4.4,6.5,3.7,7-.3.2-1.5-1-3.7-1.6-2.6-.6-5.1.3-6.5.8-4.1,1.5-6.2,4.1-6.5,3.9-.5-.3,7.2-6.1,5.6-10.9-.9-2.6-4.2-4-3.7-4.7.4-.5,2.8-.1,4.7.8,1.7.8,2.1,1.7,2.8,1.6.9-.2,1.3-1.8.9-3.1-.5-1.4-1.9-2.3-1.9-2.3.1,0,3.1,2.9,4.7,2.3Z"/>
          <path class="cls-7" d="M728.9,565.6c.5,0,5-.5,7.5-3.9,2.2-3,1.1-6.1.9-6.6.4.8,1.8,3.6,2.8,3.5,1.3-.2,1.3-4.9,1.3-5.4.2.2,2.9,2.2,4.3,1.5,1.2-.6,1.2-3.1-.4-6.2,1.8,2.5,4.8,4,7.9,3.9,2.3,0,3.9-1,4.7-1.5-.2.2-1.6,1.8-.9,3.8.5,1.5,2,2.7,3.8,3.1-1.3-.2-3.3-.4-5.7,0-1.4.2-3.5.6-3.7,1.6-.1.8,1.1,1.7,2.8,2.3-1.1-.8-2.5-1.1-3.7-.8-1.8.5-2.9,2.6-1.9,4.7-1.6-1.3-3.1-1.5-3.7-1.6-3.3-.2-7,2.4-8.4,6.6.3-.6.5-1.7,0-2.7-.9-1.8-4-3-7.5-2.3Z"/>
          <g>
            <ellipse cx="748.4" cy="549.3" rx=".9" ry=".8"/>
            <ellipse cx="751.7" cy="543.4" rx=".5" ry=".4"/>
            <ellipse cx="735.4" cy="553.2" rx=".9" ry=".8"/>
            <ellipse cx="747.5" cy="556.3" rx=".9" ry=".8"/>
            <ellipse cx="754.9" cy="563.3" rx=".9" ry=".8"/>
            <ellipse cx="758.7" cy="558.6" rx=".9" ry=".8"/>
            <ellipse cx="739.1" cy="565.6" rx=".9" ry=".8"/>
            <ellipse cx="731.7" cy="560.2" rx=".9" ry=".8"/>
            <ellipse cx="740.5" cy="552.8" rx=".5" ry=".4"/>
            <ellipse cx="758.2" cy="549.7" rx=".5" ry=".4"/>
            <ellipse cx="744.2" cy="563.7" rx=".5" ry=".4"/>
            <ellipse cx="748.9" cy="560.6" rx=".5" ry=".4"/>
          </g>
        </g>
      </g>
      <g>
        <path class="cls-5" d="M524.8,311.4c40.9-13.6,72.9-11.5,71.4,4.8s-35.9,40.6-76.8,54.2c-40.9,13.6-72.9,11.5-71.4-4.9,1.5-16.3,35.9-40.6,76.8-54.2Z"/>
        <g>
          <path class="cls-3" d="M603,331.5c0,0,0-.2,0-.3,0,0,0-.2,0-.2,0-.3,0-.6-.1-.9,0,0,0-.2,0-.3,0,0,0,0,0-.1,0-.4-.2-.8-.3-1.1,0,0,0,0,0-.1s0,0,0,0l-6.7-16.9s0,.1,0,.1c.1.4.3.7.3,1.1,0,.1,0,.3,0,.4,0,.3,0,.6.1.9,0,.2,0,.3,0,.5,0,.3,0,.6,0,.9,0,.2,0,.5,0,.7,0,.4-.1.9-.2,1.3,0,.3-.1.5-.2.8,0,.3-.1.5-.2.8,0,.3-.2.5-.3.8,0,.3-.2.5-.3.8-.1.3-.3.6-.4.9-.1.3-.2.5-.4.8-.2.3-.3.6-.5,1-.1.3-.3.5-.4.8-.3.4-.6.9-.9,1.4-.1.2-.2.3-.3.5-.4.7-.9,1.3-1.4,2-.1.1-.2.3-.4.4-.5.6-.9,1.1-1.4,1.7-.3.3-.6.6-.9,1-.2.2-.3.3-.5.5-.5.5-1,1.1-1.6,1.6,0,0,0,0,0,0-.6.6-1.2,1.2-1.8,1.8-.2.2-.4.4-.7.6-.4.4-.9.8-1.3,1.2-.8.7-1.6,1.4-2.5,2.1-.2.2-.4.3-.6.5-.7.5-1.3,1.1-2,1.6-.4.3-.8.6-1.2.9-.4.3-.8.6-1.2.9-.4.3-.9.6-1.3,1-.4.3-.8.6-1.2.9-.5.3-.9.6-1.4,1-.4.3-.8.6-1.3.9-.5.3-1,.6-1.4.9-.4.3-.9.6-1.3.8-.3.2-.7.4-1,.6-.9.6-1.9,1.2-2.9,1.8-.3.2-.7.4-1,.6-1.2.7-2.5,1.5-3.8,2.2-.3.2-.6.3-.9.5-.8.4-1.6.9-2.4,1.3-.4.2-.9.5-1.3.7-.7.4-1.4.7-2.1,1.1-.4.2-.8.4-1.2.6-.9.5-1.9.9-2.8,1.4-.5.2-1,.5-1.5.7-.6.3-1.3.6-1.9.9-.6.3-1.2.5-1.8.8-.5.2-1,.4-1.4.7-.7.3-1.3.6-2,.9-.5.2-.9.4-1.4.6-.7.3-1.4.6-2.1.9-.4.2-.9.4-1.3.5-.8.3-1.6.6-2.4,1-.4.1-.7.3-1.1.4-1.1.4-2.2.9-3.4,1.3,0,0-.1,0-.2,0-1.2.4-2.4.9-3.6,1.3-.4.1-.8.3-1.2.4-.9.3-1.8.6-2.7.9-1.1.4-2.2.7-3.3,1.1-1.1.3-2.2.7-3.3,1,0,0-.2,0-.2,0-1.2.4-2.4.7-3.5,1-.3,0-.7.2-1,.3-.8.2-1.7.5-2.5.7-.4.1-.8.2-1.3.3-.8.2-1.5.4-2.3.6-.4.1-.9.2-1.3.3-.8.2-1.7.4-2.5.6-.4,0-.7.2-1.1.2-1.2.3-2.5.5-3.7.7-.1,0-.3,0-.4,0-1.2.2-2.4.4-3.6.6-.3,0-.6,0-.9.1-1.5.2-2.9.4-4.3.6-.4,0-.7,0-1.1.1-.6,0-1.2.1-1.7.2-.4,0-.8,0-1.2.1-.6,0-1.1,0-1.7.1-.4,0-.8,0-1.1,0-.6,0-1.1,0-1.7,0-.3,0-.7,0-1,0-.6,0-1.2,0-1.8,0-.3,0-.5,0-.8,0-.8,0-1.7,0-2.5,0-.1,0-.2,0-.4,0-.7,0-1.4,0-2-.1-.3,0-.5,0-.8,0-.5,0-1,0-1.5-.1-.3,0-.6,0-.8-.1-.4,0-.9-.1-1.3-.2-.3,0-.6,0-.8-.1-.4,0-.8-.2-1.2-.2-.3,0-.5-.1-.8-.2-.4,0-.8-.2-1.2-.3-.2,0-.4-.1-.6-.2-.5-.1-.9-.3-1.3-.4-.1,0-.2,0-.4-.1-.5-.2-1.1-.4-1.6-.7-.1,0-.3-.1-.4-.2-.4-.2-.7-.4-1-.5-.2,0-.3-.2-.5-.3-.3-.2-.5-.3-.8-.5-.2-.1-.3-.2-.5-.3-.2-.2-.5-.4-.7-.6-.1-.1-.3-.3-.4-.4-.2-.2-.4-.4-.6-.6-.1-.1-.2-.3-.3-.4-.2-.2-.3-.5-.5-.7,0-.1-.2-.2-.2-.4-.2-.4-.4-.8-.6-1.2l6.7,16.9c.2.4.4.8.6,1.2,0,.1.2.2.2.4.2.2.3.5.5.7.1.1.2.3.3.4.2.2.4.4.6.6.1.1.3.3.4.4.2.2.4.4.7.6.1.1.3.2.5.3.3.2.5.4.8.5.2,0,.3.2.5.3.3.2.7.4,1,.5.1,0,.3.1.4.2.5.2,1,.5,1.6.7.1,0,.2,0,.4.1.4.2.9.3,1.3.4.2,0,.4.1.6.2.4.1.8.2,1.2.3.2,0,.5.1.8.2.4,0,.8.2,1.2.2.3,0,.5,0,.8.1.4,0,.9.1,1.3.2.3,0,.6,0,.8.1.5,0,1,.1,1.5.1.3,0,.5,0,.8,0,.7,0,1.3,0,2,.1.1,0,.2,0,.3,0,.8,0,1.6,0,2.5,0,.3,0,.5,0,.8,0,.6,0,1.2,0,1.8,0,.3,0,.7,0,1,0,.6,0,1.1,0,1.7,0,.2,0,.3,0,.5,0,.2,0,.4,0,.7,0,.5,0,1.1,0,1.7-.1.4,0,.8,0,1.2-.1.6,0,1.1-.1,1.7-.2.3,0,.5,0,.8,0,0,0,.2,0,.3,0,1.4-.2,2.8-.4,4.3-.6.1,0,.2,0,.4,0,.2,0,.4,0,.5,0,1.2-.2,2.4-.4,3.6-.6.1,0,.2,0,.3,0,0,0,0,0,0,0,1.2-.2,2.4-.5,3.7-.7.1,0,.2,0,.4,0,.2,0,.5-.1.7-.2.8-.2,1.7-.4,2.5-.6.2,0,.4,0,.7-.2.2,0,.4,0,.6-.1.8-.2,1.5-.4,2.3-.6.3,0,.6-.1.9-.2.1,0,.3,0,.4-.1.8-.2,1.7-.4,2.5-.7.3,0,.6-.1.9-.2,0,0,.1,0,.2,0,1.2-.3,2.3-.7,3.5-1,0,0,0,0,0,0,0,0,.2,0,.3,0,1.1-.3,2.1-.6,3.2-1,0,0,0,0,.1,0,1-.3,2.1-.7,3.1-1,.2,0,.4-.1.5-.2.7-.2,1.4-.5,2.1-.7.4-.1.8-.3,1.3-.4,0,0,0,0,.1,0,1.2-.4,2.3-.8,3.5-1.3,0,0,0,0,0,0,0,0,.2,0,.3,0,1-.4,2.1-.8,3.1-1.2,0,0,.1,0,.2,0,.4-.1.8-.3,1.1-.5.6-.3,1.3-.5,1.9-.8.2,0,.3-.1.5-.2.4-.2.9-.4,1.3-.5.5-.2.9-.4,1.4-.6.2,0,.5-.2.7-.3.5-.2.9-.4,1.4-.6.4-.2.7-.3,1.1-.5.3-.1.6-.3.9-.4.5-.2,1-.4,1.5-.7.3-.1.6-.3.9-.4.3-.1.6-.3.9-.4.6-.3,1.3-.6,1.9-.9.3-.1.5-.3.8-.4.2-.1.4-.2.7-.3,1-.5,1.9-.9,2.8-1.4.3-.1.5-.3.8-.4.1,0,.2-.1.4-.2.7-.4,1.4-.7,2.1-1.1.4-.2.9-.5,1.3-.7.8-.4,1.6-.9,2.3-1.3.3-.2.6-.3.9-.5,0,0,0,0,0,0,1.3-.7,2.6-1.5,3.8-2.2.3-.2.7-.4,1-.6,1-.6,1.9-1.2,2.9-1.8.2-.1.4-.3.6-.4.1,0,.3-.2.4-.2.4-.3.9-.6,1.3-.9.5-.3,1-.6,1.4-.9.4-.3.8-.6,1.3-.9.5-.3.9-.6,1.4-1,.4-.3.8-.6,1.2-.9.4-.3.9-.6,1.3-1,.4-.3.8-.6,1.2-.9.3-.2.5-.4.8-.6.1,0,.2-.2.4-.3.7-.5,1.4-1.1,2-1.6.2-.2.4-.3.7-.5.9-.7,1.7-1.4,2.5-2.1,0,0,0,0,.1,0,.4-.4.8-.7,1.2-1.1.2-.2.5-.4.7-.6.6-.6,1.2-1.1,1.8-1.7,0,0,0,0,0,0,.5-.5,1.1-1.1,1.6-1.6.2-.2.3-.3.5-.5.2-.2.4-.4.6-.6,0-.1.2-.2.3-.3.5-.6,1-1.2,1.4-1.7,0-.1.2-.2.3-.3,0,0,0,0,0-.1.5-.7,1-1.3,1.4-2,0,0,0,0,0,0,.1-.1.2-.3.3-.4.3-.5.6-.9.9-1.4,0,0,0-.1.1-.2.1-.2.2-.4.3-.6.2-.3.4-.7.5-1,0,0,0-.1.1-.2,0-.2.2-.4.3-.6.1-.3.3-.6.4-.9,0,0,0-.2.1-.2,0-.2.1-.4.2-.6,0-.3.2-.5.3-.8,0,0,0-.2,0-.2,0-.2,0-.4.1-.6,0-.3.1-.5.2-.8,0,0,0-.2,0-.2,0-.4.1-.7.1-1.1,0-.1,0-.3,0-.4,0-.1,0-.2,0-.3,0-.3,0-.6,0-.9Z"/>
          <g>
            <path class="cls-6" d="M512.4,341.7c1.2-.5,1.2-1.5,1-2.1-.5-1.2-2.9-1.4-4.9-1.9-5.5-1.3-5.9-4.6-5.6-4.7.3-.1,1.6,2,6.7,3.2,4.3,1.1,8.4.8,10.6.5,1.9-.2,4.5-.5,5.7-1.3,1.5-1-.8-2-2.5-4.2-1.9-2.5-1.7-5-1.2-5.2.9-.3.9,7.7,12.5,8.5,3.8.3,9.3-.2,9,.3-.3.5-7.1,1.2-8.3,2.6-.5.5,0,1,.3,1.1,1.2,1,4.7.6,4.6.7,0,.1-4,.2-8.8.9-3.1.4-6,.8-7.1,1.7-.9.7,0,1.4.4,1.7,1.6,1.2,5,1.1,4.8,1.3-.4.4-14.5.1-16.1,1.4-1.5,1.2,7.9,3.2,6.9,3.8-.5.3-2.4-.2-5.9.2-4.1.5-7.7,2-9.8,2.9-6,2.6-8.8,5.2-9.2,5.2-.8,0,9.9-7.1,6.6-10-1.8-1.6-7.1-1.4-6.5-2.1.5-.5,4.3-1.1,7.2-1.1,2.7,0,3.5.5,4.5.1,1.3-.5,1.7-1.8.9-2.6-.9-.9-3.3-1-3.2-1.1.1-.1,5.2,1,7.5,0Z"/>
            <path class="cls-7" d="M494.3,353.8c.7-.2,7.5-2.1,10.7-5.5,2.8-3,.6-4.9.2-5.2.8.5,3.3,2,4.9,1.6,2-.6,1.2-4.1,1.1-4.5.4,0,4.8.5,6.7-.4,1.7-.8,1.4-2.7-1.7-4.4,3.1,1.2,7.9,1.2,12.6,0,3.4-.9,5.8-2.1,6.8-2.7-.2.2-2.1,1.9-.8,3.1,1,.9,3.4,1.3,6.3.9-2,.3-5.1.9-8.6,2-2.1.7-5.3,1.7-5.4,2.5,0,.6,1.9.9,4.6.7-1.8-.2-4.1,0-5.8.8-2.6,1-3.9,2.9-2,4.1-2.7-.4-5,0-5.9.2-5.1,1-10.2,4.3-11.6,7.9.3-.6.5-1.4-.5-2-1.7-1-6.6-.7-11.7,1Z"/>
            <g>
              <ellipse cx="521.2" cy="334.8" rx="1.5" ry=".6" transform="translate(-62.9 128.5) rotate(-13.3)"/>
              <ellipse cx="525.1" cy="329.3" rx=".7" ry=".3" transform="translate(-61.5 129.2) rotate(-13.3)"/>
              <ellipse cx="502.1" cy="342.3" rx="1.5" ry=".6" transform="translate(-65.1 124.3) rotate(-13.3)"/>
              <ellipse cx="521" cy="340.3" rx="1.5" ry=".6" transform="translate(-64.2 128.6) rotate(-13.3)"/>
              <ellipse cx="533.5" cy="342.8" rx="1.5" ry=".6" transform="translate(-64.4 131.5) rotate(-13.3)"/>
              <ellipse cx="538.4" cy="338" rx="1.5" ry=".6" transform="translate(-63.2 132.5) rotate(-13.3)"/>
              <ellipse cx="509.9" cy="350.1" rx="1.5" ry=".6" transform="translate(-66.7 126.3) rotate(-13.3)"/>
              <ellipse cx="497.7" cy="348.8" rx="1.5" ry=".6" transform="translate(-66.7 123.4) rotate(-13.3)"/>
              <ellipse cx="509.8" cy="340.2" rx=".7" ry=".3" transform="translate(-64.4 126) rotate(-13.3)"/>
              <ellipse cx="536.1" cy="331.6" rx=".7" ry=".3" transform="translate(-61.8 131.8) rotate(-13.3)"/>
              <ellipse cx="517.3" cy="346.9" rx=".7" ry=".3" transform="translate(-65.8 127.9) rotate(-13.3)"/>
              <ellipse cx="523.9" cy="342.9" rx=".7" ry=".3" transform="translate(-64.7 129.3) rotate(-13.3)"/>
            </g>
          </g>
        </g>
      </g>
      <g>
        <path class="cls-3" d="M287.2,619.5c1-5.3,3.2-16.7,11.4-28.9,3.1-4.6,13.4-18.6,32.2-26.2,2.8-1.1,40.4-15.8,61.1,4,12.4,11.9,11.5,29.3,10.1,56.4-1,18.3-1.8,34.5-12.8,41.6-8.6,5.6-13.9-.5-34.3,3.4-19.2,3.6-20.7,10.3-32.9,9.4-12.8-.9-25-9.4-31.6-20.1-8.2-13.4-5.6-27.3-3.4-39.6Z"/>
        <path class="cls-5" d="M287.1,615.6c.9-5,3-15.7,10.7-27.1,2.9-4.3,12.5-17.4,30.2-24.5,2.6-1.1,37.9-14.8,57.3,3.8,11.7,11.2,10.8,27.5,9.4,52.9-.9,17.1-1.7,32.3-12,39-8,5.3-13-.5-32.1,3.1-18,3.4-19.4,9.7-30.8,8.8-12-.9-23.4-8.8-29.6-18.9-7.6-12.6-5.3-25.6-3.1-37.1Z"/>
        <g>
          <path class="cls-6" d="M338.1,614.4c.7-.3.9-1.6.8-2.5-.1-1.8-1.4-2.8-2.5-4.1-2.9-3.6-2.7-8.2-2.5-8.2.2,0,.6,3.2,3.3,6.6,2.3,2.9,4.5,3.8,5.8,4.1,1.1.3,2.6.7,3.3,0,1-.9-.2-2.9-.8-6.6-.7-4.1-.3-7.4,0-7.4.5,0-.5,10.7,5.8,15.6,2.1,1.6,5.1,2.7,4.9,3.3-.2.6-4.1-.6-4.9.8-.4.6,0,1.4,0,1.6.6,1.7,2.5,2.3,2.5,2.5,0,.1-2.2-1-4.9-1.6-1.7-.4-3.4-.8-4.1,0-.6.7-.2,2,0,2.5.7,2.1,2.6,3.1,2.5,3.3-.3.4-8-4.5-9.1-3.3-1,1.1,3.9,6.9,3.3,7.4-.3.3-1.3-1.1-3.3-1.6-2.3-.6-4.5.3-5.8.8-3.7,1.6-5.5,4.3-5.8,4.1-.4-.3,6.4-6.5,4.9-11.5-.8-2.8-3.8-4.2-3.3-4.9.4-.6,2.5-.1,4.1.8,1.5.9,1.8,1.8,2.5,1.6.8-.2,1.2-1.9.8-3.3-.4-1.5-1.7-2.4-1.6-2.5,0-.1,2.8,3.1,4.1,2.5Z"/>
          <path class="cls-7" d="M326.6,625.1c.4,0,4.4-.5,6.6-4.1,1.9-3.2.9-6.5.8-7,.4.9,1.6,3.9,2.5,3.7,1.2-.2,1.2-5.2,1.2-5.7.2.2,2.6,2.3,3.8,1.6,1-.6,1.1-3.3-.4-6.6,1.6,2.6,4.2,4.2,7,4.1,2,0,3.5-1.1,4.1-1.6-.2.2-1.4,1.9-.8,4,.4,1.6,1.7,2.9,3.4,3.3-1.2-.2-3-.4-5,0-1.2.3-3.1.7-3.3,1.6-.1.8.9,1.8,2.5,2.5-1-.8-2.2-1.2-3.3-.8-1.5.6-2.5,2.8-1.6,4.9-1.4-1.4-2.7-1.6-3.3-1.6-2.9-.2-6.2,2.5-7.4,7,.2-.7.5-1.8,0-2.9-.8-1.9-3.5-3.1-6.6-2.5Z"/>
          <g>
            <circle cx="343.9" cy="607.8" r=".8"/>
            <circle cx="346.8" cy="601.7" r=".4"/>
            <circle cx="332.4" cy="612" r=".8"/>
            <circle cx="343.1" cy="615.2" r=".8"/>
            <circle cx="349.7" cy="622.7" r=".8"/>
            <circle cx="353" cy="617.7" r=".8"/>
            <circle cx="335.7" cy="625.1" r=".8"/>
            <circle cx="329.1" cy="619.4" r=".8"/>
            <circle cx="336.9" cy="611.5" r=".4"/>
            <circle cx="352.6" cy="608.2" r=".4"/>
            <circle cx="340.2" cy="623.1" r=".4"/>
            <circle cx="344.3" cy="619.8" r=".4"/>
          </g>
        </g>
      </g>
    </g>
  </g>
</svg>